HIERARCHY
ROOT Hips
{
  OFFSET 5.72205e-005 65.662 3.42586
  CHANNELS 6 Xposition Yposition Zposition Zrotation Xrotation Yrotation
  JOINT Chest
  {
    OFFSET 0 8.7983 -4.7612
    CHANNELS 3 Zrotation Xrotation Yrotation
    JOINT Chest2
    {
      OFFSET 0 8.0291 0.4195
      CHANNELS 3 Zrotation Xrotation Yrotation
      JOINT Chest3
      {
        OFFSET 0 9.9351 -2.2114
        CHANNELS 3 Zrotation Xrotation Yrotation
        JOINT Neck
        {
          OFFSET 0 22.3885 -0.4656
          CHANNELS 3 Zrotation Xrotation Yrotation
          JOINT Head
          {
            OFFSET -0.0001 12.643 3.4389
            CHANNELS 3 Zrotation Xrotation Yrotation
            End Site
            {
              OFFSET 0.0001 17.6655 0.5274
            }
          }
        }
        JOINT LeftCollar
        {
          OFFSET 2.2603 21.606 7.4023
          CHANNELS 3 Zrotation Xrotation Yrotation
          JOINT LeftShoulder
          {
            OFFSET 13.5163 -1.1332 -5.0146
            CHANNELS 3 Zrotation Xrotation Yrotation
            JOINT LeftElbow
            {
              OFFSET -0.0995 -28.05 -0.2431
              CHANNELS 3 Zrotation Xrotation Yrotation
              JOINT LeftWrist
              {
                OFFSET 0.0679 -23.3996 -0.1402
                CHANNELS 3 Zrotation Xrotation Yrotation
                JOINT LeftFinger1
                {
                  OFFSET 0.7932 -9.069 2.5189
                  CHANNELS 3 Zrotation Xrotation Yrotation
                  JOINT LeftFinger11
                  {
                    OFFSET -0.8272 -3.3923 0.5977
                    CHANNELS 3 Zrotation Xrotation Yrotation
                    JOINT LeftFinger12
                    {
                      OFFSET -0.5649 -2.3158 0.4082
                      CHANNELS 3 Zrotation Xrotation Yrotation
                      End Site
                      {
                        OFFSET -0.4919 -1.6479 0.2673
                      }
                    }
                  }
                }
                JOINT LeftFinger2
                {
                  OFFSET 0.9159 -9.2044 0.2193
                  CHANNELS 3 Zrotation Xrotation Yrotation
                  JOINT LeftFinger21
                  {
                    OFFSET 0.0117 -4.1944 -0.0248
                    CHANNELS 3 Zrotation Xrotation Yrotation
                    JOINT LeftFinger22
                    {
                      OFFSET 0.0071 -2.3249 -0.0142
                      CHANNELS 3 Zrotation Xrotation Yrotation
                      End Site
                      {
                        OFFSET -0.1475 -2.0882 0.0028
                      }
                    }
                  }
                }
                JOINT LeftFinger3
                {
                  OFFSET 0.6113 -8.7231 -2.0637
                  CHANNELS 3 Zrotation Xrotation Yrotation
                  JOINT LeftFinger31
                  {
                    OFFSET -0.1927 -3.8059 -0.2383
                    CHANNELS 3 Zrotation Xrotation Yrotation
                    JOINT LeftFinger32
                    {
                      OFFSET -0.1091 -2.1688 -0.1362
                      CHANNELS 3 Zrotation Xrotation Yrotation
                      End Site
                      {
                        OFFSET -0.2358 -1.9176 -0.0906
                      }
                    }
                  }
                }
                JOINT LeftFinger4
                {
                  OFFSET -0.6151 -8.0947 -3.5641
                  CHANNELS 3 Zrotation Xrotation Yrotation
                  JOINT LeftFinger41
                  {
                    OFFSET -0.4882 -2.341 -0.6462
                    CHANNELS 3 Zrotation Xrotation Yrotation
                    JOINT LeftFinger42
                    {
                      OFFSET -0.3575 -1.7167 -0.4742
                      CHANNELS 3 Zrotation Xrotation Yrotation
                      End Site
                      {
                        OFFSET -0.4187 -1.5237 -0.3496
                      }
                    }
                  }
                }
                JOINT LeftFinger0
                {
                  OFFSET -1.42 -1.8761 1.4223
                  CHANNELS 3 Zrotation Xrotation Yrotation
                  JOINT LeftFinger01
                  {
                    OFFSET -1.1471 -3.4929 2.6334
                    CHANNELS 3 Zrotation Xrotation Yrotation
                    JOINT LeftFinger02
                    {
                      OFFSET -0.823 -2.3 1.6571
                      CHANNELS 3 Zrotation Xrotation Yrotation
                      End Site
                      {
                        OFFSET -0.5822 -1.6914 1.1582
                      }
                    }
                  }
                }
              }
            }
          }
        }
        JOINT RightCollar
        {
          OFFSET -2.2603 21.606 7.4023
          CHANNELS 3 Zrotation Xrotation Yrotation
          JOINT RightShoulder
          {
            OFFSET -13.5187 -1.1334 -5.0155
            CHANNELS 3 Zrotation Xrotation Yrotation
            JOINT RightElbow
            {
              OFFSET 0.0994 -28.0499 -0.2431
              CHANNELS 3 Zrotation Xrotation Yrotation
              JOINT RightWrist
              {
                OFFSET -0.0679 -23.3996 -0.1402
                CHANNELS 3 Zrotation Xrotation Yrotation
                JOINT RightFinger1
                {
                  OFFSET -0.7932 -9.0691 2.5189
                  CHANNELS 3 Zrotation Xrotation Yrotation
                  JOINT RightFinger11
                  {
                    OFFSET 0.8272 -3.3923 0.5977
                    CHANNELS 3 Zrotation Xrotation Yrotation
                    JOINT RightFinger12
                    {
                      OFFSET 0.565 -2.3158 0.4082
                      CHANNELS 3 Zrotation Xrotation Yrotation
                      End Site
                      {
                        OFFSET 0.4919 -1.6479 0.2673
                      }
                    }
                  }
                }
                JOINT RightFinger2
                {
                  OFFSET -0.916 -9.2044 0.2193
                  CHANNELS 3 Zrotation Xrotation Yrotation
                  JOINT RightFinger21
                  {
                    OFFSET -0.0117 -4.1944 -0.0248
                    CHANNELS 3 Zrotation Xrotation Yrotation
                    JOINT RightFinger22
                    {
                      OFFSET -0.0071 -2.3249 -0.0142
                      CHANNELS 3 Zrotation Xrotation Yrotation
                      End Site
                      {
                        OFFSET 0.1475 -2.0882 0.0028
                      }
                    }
                  }
                }
                JOINT RightFinger3
                {
                  OFFSET -0.6113 -8.7231 -2.0637
                  CHANNELS 3 Zrotation Xrotation Yrotation
                  JOINT RightFinger31
                  {
                    OFFSET 0.1927 -3.8059 -0.2383
                    CHANNELS 3 Zrotation Xrotation Yrotation
                    JOINT RightFinger32
                    {
                      OFFSET 0.1091 -2.1688 -0.1362
                      CHANNELS 3 Zrotation Xrotation Yrotation
                      End Site
                      {
                        OFFSET 0.2358 -1.9176 -0.0906
                      }
                    }
                  }
                }
                JOINT RightFinger4
                {
                  OFFSET 0.6151 -8.0947 -3.564
                  CHANNELS 3 Zrotation Xrotation Yrotation
                  JOINT RightFinger41
                  {
                    OFFSET 0.4882 -2.341 -0.6462
                    CHANNELS 3 Zrotation Xrotation Yrotation
                    JOINT RightFinger42
                    {
                      OFFSET 0.3574 -1.7166 -0.4742
                      CHANNELS 3 Zrotation Xrotation Yrotation
                      End Site
                      {
                        OFFSET 0.4187 -1.5237 -0.3496
                      }
                    }
                  }
                }
                JOINT RightFinger0
                {
                  OFFSET 1.4199 -1.8761 1.4221
                  CHANNELS 3 Zrotation Xrotation Yrotation
                  JOINT RightFinger01
                  {
                    OFFSET 1.1472 -3.4929 2.6336
                    CHANNELS 3 Zrotation Xrotation Yrotation
                    JOINT RightFinger02
                    {
                      OFFSET 0.8229 -2.3 1.6571
                      CHANNELS 3 Zrotation Xrotation Yrotation
                      End Site
                      {
                        OFFSET 0.5822 -1.6914 1.1582
                      }
                    }
                  }
                }
              }
            }
          }
        }
      }
    }
  }
  JOINT RightHip
  {
    OFFSET -9.412 3.9771 -0.7758
    CHANNELS 3 Zrotation Xrotation Yrotation
    JOINT RightKnee
    {
      OFFSET -0.7531 -40.938 0
      CHANNELS 3 Zrotation Xrotation Yrotation
      JOINT RightAnkle
      {
        OFFSET 0 -40.1986 0
        CHANNELS 3 Zrotation Xrotation Yrotation
        JOINT RightToe
        {
          OFFSET 0 -4.4182 9.239
          CHANNELS 3 Zrotation Xrotation Yrotation
          End Site
          {
            OFFSET 0 0 6.1981
          }
        }
      }
    }
  }
  JOINT LeftHip
  {
    OFFSET 9.4119 3.9773 -0.7758
    CHANNELS 3 Zrotation Xrotation Yrotation
    JOINT LeftKnee
    {
      OFFSET 0.7532 -40.9383 0
      CHANNELS 3 Zrotation Xrotation Yrotation
      JOINT LeftAnkle
      {
        OFFSET 0 -40.1986 0
        CHANNELS 3 Zrotation Xrotation Yrotation
        JOINT LeftToe
        {
          OFFSET 0 -4.4182 9.239
          CHANNELS 3 Zrotation Xrotation Yrotation
          End Site
          {
            OFFSET 0 0 6.1981
          }
        }
      }
    }
  }
}
MOTION
Frames:	4
Frame Time:	0.0333333
5.72205e-005 65.662 3.42586 0 0 -0 0 0 -0 0 0 -0 0 0 -0 0 0 -0 0 0 -0 0 0 -12.5014 88.1196 14.2451 10.6914 -0.00160068 -0.00239207 0.000740045 -8.4365e-005 7.00714e-005 -9.52055e-007 9.93923e-017 -1.98785e-016 -1.59028e-015 9.93923e-017 -5.96354e-016 -1.59028e-015 -9.93923e-017 -5.96354e-016 -1.59028e-015 9.93923e-017 -1.98785e-016 -1.59028e-015 -0.0128176 0.00232552 8.52707e-005 9.93923e-017 5.96354e-016 -0 9.93923e-017 -1.98785e-016 -1.59028e-015 -0.0160551 0.00299681 0.000857156 -2.48481e-016 0 3.18055e-015 9.93923e-017 -1.98785e-016 -1.59028e-015 -0.0125865 0.0031206 0.00282719 0 1.98785e-016 -0 9.93923e-017 -1.98785e-016 -1.59028e-015 9.93923e-017 -5.96354e-016 -1.59028e-015 -9.93923e-017 -5.96354e-016 -1.59028e-015 -0.865644 0.16582 7.03859 -88.0329 10.2057 -10.5567 0.0015593 -0.00248883 -0.000788628 7.87605e-005 4.10553e-005 1.24965e-005 -3.97569e-016 -7.95139e-016 3.18055e-015 -1.98785e-016 -3.97569e-016 3.18055e-015 -1.98785e-016 0 3.18055e-015 -3.97569e-016 -7.95139e-016 3.18055e-015 0.0129473 0.00231697 -8.70038e-005 9.93923e-017 -7.95139e-016 1.59028e-015 -3.97569e-016 -7.95139e-016 3.18055e-015 0.0163314 0.00303369 -0.000872333 3.97569e-016 7.95139e-016 -3.18055e-015 -3.97569e-016 -7.95139e-016 3.18055e-015 0.0145763 0.00367772 -0.00326275 9.93923e-017 -3.97569e-016 -0 -3.97569e-016 -7.95139e-016 3.18055e-015 -1.98785e-016 -3.97569e-016 3.18055e-015 -1.98785e-016 0 3.18055e-015 3.42482 1.32465 -0.0626183 0.000117508 0.717283 0.000978199 -3.4257 -2.04197 -0.0604716 6.47761e-025 0 -0 -3.42483 1.34017 0.0627307 -0.000193936 0.682302 -0.0013703 3.42574 -2.02253 0.0595886 -8.45714e-024 0 -7.40531e-025 
-0.156925 63.3019 4.61903 7.64643e-013 0.0223201 -1.9629e-009 -0.158166 3.32277 -0.0638175 -0.313409 6.64569 -0.118729 -0.313411 6.64571 -0.118729 -1.72648e-006 -0.200204 -6.13164e-007 -1.18257e-007 -0.150487 -1.17715e-007 -10.8761 -5.28917 -7.15617 55.9653 -16.3802 0.501454 -4.58181 -16.4388 13.0545 -3.87199 0.706416 -0.0964643 3.95004e-007 1.8196e-007 7.55951e-007 3.95004e-007 3.18055e-015 7.55951e-007 1.59028e-015 6.36111e-015 1.59028e-015 3.95004e-007 1.8196e-007 7.55951e-007 -0.0127695 0.00231743 8.78981e-005 4.17448e-015 0 3.97569e-016 3.95004e-007 1.8196e-007 7.55951e-007 -0.0160249 0.00299166 0.000854888 2.78299e-015 1.27222e-014 -3.97569e-016 3.95004e-007 1.8196e-007 7.55951e-007 -0.0125863 0.00311524 0.00282726 7.7526e-015 6.36111e-015 3.97569e-016 3.95004e-007 1.8196e-007 7.55951e-007 3.95004e-007 3.18055e-015 7.55951e-007 1.59028e-015 6.36111e-015 1.59028e-015 3.6439 -0.0762741 9.36443 -45.6337 -7.7592 9.02611 4.85967 -16.1511 -13.1585 3.98836 0.722774 0.204283 -6.74037e-007 5.25787e-006 4.32061e-006 -5.1684e-015 3.18055e-015 -9.54166e-015 -5.96354e-015 1.3638e-008 -3.18055e-015 -6.74037e-007 5.25787e-006 4.32061e-006 0.0129421 0.00231171 -8.81822e-005 3.57634e-007 7.28651e-007 1.61197e-006 -6.74037e-007 5.25787e-006 4.32061e-006 0.0163424 0.00303758 -0.000878277 -2.78299e-015 8.37793e-007 -1.59028e-015 -6.74037e-007 5.25787e-006 4.32061e-006 0.0146347 0.003697 -0.00327838 3.57582e-007 7.42318e-007 1.61201e-006 -6.74037e-007 5.25787e-006 4.32061e-006 -5.1684e-015 3.18055e-015 -9.54166e-015 -5.96354e-015 1.3638e-008 -3.18055e-015 1.63742 1.35398 -5.09779 1.68897 0.00697315 0.0337089 3.93901 1.31134 -4.0315 -3.03147e-015 2.16228e-007 -4.77083e-015 5.75048 0.146042 6.39347 1.70135 1.94841 -0.493684 -4.20894 7.11118 5.68981 -4.21382e-007 8.9195e-008 -6.13162e-008 
-0.281638 61.4853 5.56995 6.83831e-008 1.68288e-017 2.83654e-008 -0.26431 5.89808 -0.135634 -0.518654 11.7967 -0.245713 -0.518656 11.7968 -0.245713 -1.2355e-006 -0.400398 -3.14456e-007 1.85999e-007 -0.267537 6.76037e-008 -18.728 -9.32576 -2.98644 36.7695 -42.0208 -5.37177 -8.62469 -29.174 22.2484 -6.88305 1.25938 -0.138082 2.38542e-015 0 -7.95139e-016 1.59028e-015 3.18055e-015 -3.97569e-015 -7.95139e-016 -3.18055e-015 -1.59028e-015 2.38542e-015 0 -7.95139e-016 -0.0128071 0.00231352 9.24646e-005 7.95139e-016 9.54166e-015 3.97569e-015 2.38542e-015 0 -7.95139e-016 -0.0160502 0.0029806 0.000844401 -4.77083e-015 9.54166e-015 -1.59028e-015 2.38542e-015 0 -7.95139e-016 -0.012589 0.00312105 0.00282788 0 0 -1.59028e-015 2.38542e-015 0 -7.95139e-016 1.59028e-015 3.18055e-015 -3.97569e-015 -7.95139e-016 -3.18055e-015 -1.59028e-015 7.20483 -0.149266 11.1881 -14.3112 -23.9464 24.9254 9.16533 -28.888 -22.2851 6.8733 1.25167 0.31278 -2.63992e-006 6.26782e-006 -2.30471e-007 -3.97569e-015 -6.36111e-015 6.36111e-015 -1.15295e-014 -1.59028e-015 3.18055e-015 -2.63992e-006 6.26782e-006 -2.30471e-007 0.0129741 0.00231479 -8.73596e-005 -6.36111e-015 1.59028e-015 3.18055e-015 -2.63992e-006 6.26782e-006 -2.30471e-007 0.0163199 0.00302565 -0.00087311 5.91584e-006 1.48214e-006 -2.08658e-006 -2.63992e-006 6.26782e-006 -2.30471e-007 0.0146166 0.00367683 -0.00326895 3.36445e-007 2.5635e-006 1.5984e-006 -2.63992e-006 6.26782e-006 -2.30471e-007 -3.97569e-015 -6.36111e-015 6.36111e-015 -1.15295e-014 -1.59028e-015 3.18055e-015 0.216322 1.06712 -9.0127 3.00379 0.0596007 0.0517009 9.94958 3.61006 -7.1336 3.97569e-015 -7.95139e-016 9.54166e-015 13.1035 -1.40719 11.2931 3.00595 4.1765 -1.0226 -11.433 13.4174 10.1189 2.32609e-006 7.95862e-006 7.16161e-006 
-0.300899 61.2361 5.79649 -1.83702e-007 -0.156231 1.10545e-007 -0.270871 6.23253 -0.142342 -0.530815 12.4657 -0.257141 -0.530817 12.4657 -0.257142 -2.73536e-007 -0.600424 -3.79879e-007 1.13649e-008 -0.284263 1.11992e-008 -20.1144 -9.93789 -2.66885 34.752 -44.956 -5.88757 -9.17464 -30.8626 23.3428 -7.31324 1.33849 -0.14154 -1.59028e-015 -3.18055e-015 7.95139e-016 -1.59028e-015 -9.54166e-015 1.59028e-015 2.38542e-015 -1.59028e-014 7.95139e-016 -1.59028e-015 -3.18055e-015 7.95139e-016 -0.0127994 0.00233509 7.86547e-005 -1.59028e-015 3.18055e-015 3.97569e-016 -1.59028e-015 -3.18055e-015 7.95139e-016 -0.0160194 0.00299587 0.000850126 7.95139e-016 3.18055e-015 -1.19271e-015 -1.59028e-015 -3.18055e-015 7.95139e-016 -0.0125669 0.00311294 0.00282371 -7.95139e-016 6.36111e-015 -1.59028e-015 -1.59028e-015 -3.18055e-015 7.95139e-016 -1.59028e-015 -9.54166e-015 1.59028e-015 2.38542e-015 -1.59028e-014 7.95139e-016 7.86897 0.282937 11.5058 -10.0497 -26.3015 27.1859 9.90285 -31.2089 -23.2523 6.45379 1.16647 0.267396 -8.74653e-015 4.77083e-015 -0 2.38542e-015 3.18055e-015 -0 7.15625e-015 3.18055e-015 -0 -8.74653e-015 4.77083e-015 -0 0.0129737 0.00232053 -8.78748e-005 -4.37326e-015 3.18055e-015 -0 -8.74653e-015 4.77083e-015 -0 0.0163453 0.00303849 -0.000875254 -6.36111e-015 -4.77083e-015 -0 -8.74653e-015 4.77083e-015 -0 0.0145763 0.00367736 -0.00326035 -5.1684e-015 7.95139e-015 -0 -8.74653e-015 4.77083e-015 -0 2.38542e-015 3.18055e-015 -0 7.15625e-015 3.18055e-015 -0 0.00235491 1.29824 -9.60028 3.18717 -0.00432417 0.0689191 10.8273 3.88576 -7.56487 7.47334e-007 6.5214e-007 1.72938e-006 14.1668 -1.46342 12.0124 3.10131 4.53498 -1.11053 -12.5598 14.0664 10.6716 -2.29341e-008 -1.12409e-006 1.62201e-006 
